{
  "accessors": [
    {
      "bufferView": 2,
      "componentType": 5126,
      "count": 131,
      "max": [
        0.21927499771118164,
        1.1505110263824463,
        0.1619739979505539
      ],
      "min": [
        -0.08451700210571289,
        0.7133979797363281,
        -0.13516899943351746
      ],
      "type": "VEC3"
    },
    {
      "bufferView": 2,
      "byteOffset": 1572,
      "componentType": 5126,
      "count": 131,
      "max": [
        0.9645100831985474,
        0.7681163549423218,
        0.9983950257301331
      ],
      "min": [
        -0.9512965083122253,
        -0.9972637891769409,
        -0.9464995861053467
      ],
      "type": "VEC3"
    },
    {
      "bufferView": 1,
      "componentType": 5126,
      "count": 131,
      "max": [
        1.0,
        1.0
      ],
      "min": [
        0.0,
        0.0
      ],
      "type": "VEC2"
    },
    {
      "bufferView": 0,
      "componentType": 5125,
      "count": 195,
      "type": "SCALAR"
    },
    {
      "bufferView": 2,
      "byteOffset": 3144,
      "componentType": 5126,
      "count": 28,
      "max": [
        0.03225899860262871,
        1.7728320360183716,
        0.12491799890995026
      ],
      "min": [
        -0.05969500169157982,
        1.7627719640731812,
        0.11199799925088882
      ],
      "type": "VEC3"
    },
    {
      "bufferView": 2,
      "byteOffset": 3480,
      "componentType": 5126,
      "count": 28,
      "max": [
        0.9327691793441772,
        0.2731361985206604,
        0.998349130153656
      ],
      "min": [
        -0.9266230463981628,
        -0.4093467891216278,
        0.2647670805454254
      ],
      "type": "VEC3"
    },
    {
      "bufferView": 1,
      "byteOffset": 1048,
      "componentType": 5126,
      "count": 28,
      "max": [
        0.9641090035438538,
        0.00494999997317791
      ],
      "min": [
        0.7475249767303467,
        0.00494999997317791
      ],
      "type": "VEC2"
    },
    {
      "bufferView": 0,
      "byteOffset": 780,
      "componentType": 5125,
      "count": 36,
      "type": "SCALAR"
    },
    {
      "bufferView": 2,
      "byteOffset": 3816,
      "componentType": 5126,
      "count": 1966,
      "max": [
        0.8736039996147156,
        1.6754909753799438,
        0.32920798659324646
      ],
      "min": [
        -0.7296370267868042,
        0.35787099599838257,
        -0.19619299471378326
      ],
      "type": "VEC3"
    },
    {
      "bufferView": 2,
      "byteOffset": 27408,
      "componentType": 5126,
      "count": 1966,
      "max": [
        0.998583197593689,
        0.9993632435798645,
        0.9993403553962708
      ],
      "min": [
        -0.998369574546814,
        -0.9988225698471069,
        -0.9999831318855286
      ],
      "type": "VEC3"
    },
    {
      "bufferView": 1,
      "byteOffset": 1272,
      "componentType": 5126,
      "count": 1966,
      "max": [
        2.0173180103302,
        1.0
      ],
      "min": [
        -0.10385199636220932,
        -1.101261019706726
      ],
      "type": "VEC2"
    },
    {
      "bufferView": 0,
      "byteOffset": 924,
      "componentType": 5125,
      "count": 2736,
      "type": "SCALAR"
    },
    {
      "bufferView": 2,
      "byteOffset": 51000,
      "componentType": 5126,
      "count": 196,
      "max": [
        0.228069007396698,
        1.1337430477142334,
        0.1927109956741333
      ],
      "min": [
        -0.1296599954366684,
        0.6284629702568054,
        -0.13516899943351746
      ],
      "type": "VEC3"
    },
    {
      "bufferView": 2,
      "byteOffset": 53352,
      "componentType": 5126,
      "count": 196,
      "max": [
        0.9829141497612,
        0.5690017342567444,
        0.9846050143241882
      ],
      "min": [
        -0.9977236390113831,
        -0.9474846720695496,
        -0.9951295852661133
      ],
      "type": "VEC3"
    },
    {
      "bufferView": 1,
      "byteOffset": 17000,
      "componentType": 5126,
      "count": 196,
      "max": [
        1.0,
        1.0
      ],
      "min": [
        0.0,
        0.0
      ],
      "type": "VEC2"
    },
    {
      "bufferView": 0,
      "byteOffset": 11868,
      "componentType": 5125,
      "count": 294,
      "type": "SCALAR"
    },
    {
      "bufferView": 2,
      "byteOffset": 55704,
      "componentType": 5126,
      "count": 564,
      "max": [
        0.21662400662899017,
        1.7728320360183716,
        0.1792690008878708
      ],
      "min": [
        -0.25761300325393677,
        0.1086290031671524,
        -0.149835005402565
      ],
      "type": "VEC3"
    },
    {
      "bufferView": 2,
      "byteOffset": 62472,
      "componentType": 5126,
      "count": 564,
      "max": [
        0.999998152256012,
        0.9995705485343933,
        0.9927636981010437
      ],
      "min": [
        -0.993353009223938,
        -0.99934321641922,
        -0.969142735004425
      ],
      "type": "VEC3"
    },
    {
      "bufferView": 1,
      "byteOffset": 18568,
      "componentType": 5126,
      "count": 564,
      "max": [
        1.0,
        1.0
      ],
      "min": [
        0.0,
        0.0
      ],
      "type": "VEC2"
    },
    {
      "bufferView": 0,
      "byteOffset": 13044,
      "componentType": 5125,
      "count": 840,
      "type": "SCALAR"
    },
    {
      "bufferView": 2,
      "byteOffset": 69240,
      "componentType": 5126,
      "count": 230,
      "max": [
        0.7322790026664734,
        1.5057120323181152,
        0.1533910036087036
      ],
      "min": [
        -0.7264689803123474,
        0.06549599766731262,
        -0.10892000049352646
      ],
      "type": "VEC3"
    },
    {
      "bufferView": 2,
      "byteOffset": 72000,
      "componentType": 5126,
      "count": 230,
      "max": [
        0.9638201594352722,
        0.9760327935218811,
        0.9942207932472229
      ],
      "min": [
        -0.9435646533966064,
        -0.7854540348052979,
        -0.901062548160553
      ],
      "type": "VEC3"
    },
    {
      "bufferView": 1,
      "byteOffset": 23080,
      "componentType": 5126,
      "count": 230,
      "max": [
        1.0,
        1.0
      ],
      "min": [
        0.0,
        0.0
      ],
      "type": "VEC2"
    },
    {
      "bufferView": 0,
      "byteOffset": 16404,
      "componentType": 5125,
      "count": 330,
      "type": "SCALAR"
    },
    {
      "bufferView": 2,
      "byteOffset": 74760,
      "componentType": 5126,
      "count": 532,
      "max": [
        0.2656710147857666,
        0.3356119990348816,
        0.11035200208425522
      ],
      "min": [
        -0.23530200123786926,
        -0.014631999656558037,
        -0.21967199444770813
      ],
      "type": "VEC3"
    },
    {
      "bufferView": 2,
      "byteOffset": 81144,
      "componentType": 5126,
      "count": 532,
      "max": [
        0.9990785717964172,
        0.9986974596977234,
        0.999686598777771
      ],
      "min": [
        -0.9998902082443237,
        -0.9995336532592773,
        -0.9830329418182373
      ],
      "type": "VEC3"
    },
    {
      "bufferView": 1,
      "byteOffset": 24920,
      "componentType": 5126,
      "count": 532,
      "max": [
        1.0,
        1.0
      ],
      "min": [
        0.0,
        0.0
      ],
      "type": "VEC2"
    },
    {
      "bufferView": 0,
      "byteOffset": 17724,
      "componentType": 5125,
      "count": 780,
      "type": "SCALAR"
    },
    {
      "bufferView": 2,
      "byteOffset": 87528,
      "componentType": 5126,
      "count": 186,
      "max": [
        0.9435780048370361,
        1.6897029876708984,
        0.34302398562431335
      ],
      "min": [
        -0.04264700040221214,
        0.78090900182724,
        -0.10819999873638153
      ],
      "type": "VEC3"
    },
    {
      "bufferView": 2,
      "byteOffset": 89760,
      "componentType": 5126,
      "count": 186,
      "max": [
        0.9683848023414612,
        0.9666836261749268,
        0.9780997037887573
      ],
      "min": [
        -0.953970730304718,
        -0.9964114427566528,
        -0.9455288648605347
      ],
      "type": "VEC3"
    },
    {
      "bufferView": 1,
      "byteOffset": 29176,
      "componentType": 5126,
      "count": 186,
      "max": [
        0.928725004196167,
        0.995048999786377
      ],
      "min": [
        0.0712750032544136,
        0.00494999997317791
      ],
      "type": "VEC2"
    },
    {
      "bufferView": 0,
      "byteOffset": 20844,
      "componentType": 5125,
      "count": 270,
      "type": "SCALAR"
    },
    {
      "bufferView": 2,
      "byteOffset": 91992,
      "componentType": 5126,
      "count": 143,
      "max": [
        -0.0031649998854845762,
        1.116392970085144,
        0.21413099765777588
      ],
      "min": [
        -0.2657659947872162,
        0.6284629702568054,
        -0.13516899943351746
      ],
      "type": "VEC3"
    },
    {
      "bufferView": 2,
      "byteOffset": 93708,
      "componentType": 5126,
      "count": 143,
      "max": [
        0.7452334761619568,
        0.6556784510612488,
        0.954957902431488
      ],
      "min": [
        -0.9640114307403564,
        -0.994636058807373,
        -0.9652726054191589
      ],
      "type": "VEC3"
    },
    {
      "bufferView": 1,
      "byteOffset": 30664,
      "componentType": 5126,
      "count": 143,
      "max": [
        1.0,
        1.0
      ],
      "min": [
        0.0,
        0.0
      ],
      "type": "VEC2"
    },
    {
      "bufferView": 0,
      "byteOffset": 21924,
      "componentType": 5125,
      "count": 213,
      "type": "SCALAR"
    },
    {
      "bufferView": 2,
      "byteOffset": 95424,
      "componentType": 5126,
      "count": 1109,
      "max": [
        0.09174299985170364,
        1.9495600461959839,
        0.1602189987897873
      ],
      "min": [
        -0.11063999682664871,
        1.7464449405670166,
        -0.10879600048065186
      ],
      "type": "VEC3"
    },
    {
      "bufferView": 2,
      "byteOffset": 108732,
      "componentType": 5126,
      "count": 1109,
      "max": [
        0.9996072053909302,
        0.9954599738121033,
        0.9941243529319763
      ],
      "min": [
        -0.9970820546150208,
        -0.9954743981361389,
        -0.9965526461601257
      ],
      "type": "VEC3"
    },
    {
      "bufferView": 1,
      "byteOffset": 31808,
      "componentType": 5126,
      "count": 1109,
      "max": [
        0.995048999786377,
        0.995048999786377
      ],
      "min": [
        0.5,
        0.00494999997317791
      ],
      "type": "VEC2"
    },
    {
      "bufferView": 0,
      "byteOffset": 22776,
      "componentType": 5125,
      "count": 1347,
      "type": "SCALAR"
    },
    {
      "bufferView": 2,
      "byteOffset": 122040,
      "componentType": 5126,
      "count": 112,
      "max": [
        0.028624000027775764,
        1.7774150371551514,
        0.12524999678134918
      ],
      "min": [
        -0.056060001254081726,
        1.760193943977356,
        0.11993599683046341
      ],
      "type": "VEC3"
    },
    {
      "bufferView": 2,
      "byteOffset": 123384,
      "componentType": 5126,
      "count": 112,
      "max": [
        0.7758405804634094,
        0.5628718137741089,
        0.9953193068504333
      ],
      "min": [
        -0.7826620936393738,
        -0.6545047760009766,
        0.5821281671524048
      ],
      "type": "VEC3"
    },
    {
      "bufferView": 1,
      "byteOffset": 40680,
      "componentType": 5126,
      "count": 112,
      "max": [
        0.995048999786377,
        0.00494999997317791
      ],
      "min": [
        0.00494999997317791,
        0.00494999997317791
      ],
      "type": "VEC2"
    },
    {
      "bufferView": 0,
      "byteOffset": 28164,
      "componentType": 5125,
      "count": 144,
      "type": "SCALAR"
    },
    {
      "bufferView": 2,
      "byteOffset": 124728,
      "componentType": 5126,
      "count": 118,
      "max": [
        0.02616799995303154,
        1.6998399496078491,
        0.12682999670505524
      ],
      "min": [
        -0.05360399931669235,
        1.6620919704437256,
        0.09840299934148788
      ],
      "type": "VEC3"
    },
    {
      "bufferView": 2,
      "byteOffset": 126144,
      "componentType": 5126,
      "count": 118,
      "max": [
        0.9557786583900452,
        0.9581685662269592,
        0.9876458644866943
      ],
      "min": [
        -0.9723562598228455,
        -0.9975963830947876,
        -0.1726277768611908
      ],
      "type": "VEC3"
    },
    {
      "bufferView": 1,
      "byteOffset": 41576,
      "componentType": 5126,
      "count": 118,
      "max": [
        0.7475249767303467,
        0.00494999997317791
      ],
      "min": [
        0.5,
        0.00494999997317791
      ],
      "type": "VEC2"
    },
    {
      "bufferView": 0,
      "byteOffset": 28740,
      "componentType": 5125,
      "count": 174,
      "type": "SCALAR"
    },
    {
      "bufferView": 2,
      "byteOffset": 127560,
      "componentType": 5126,
      "count": 3458,
      "max": [
        0.8544549942016602,
        1.871845006942749,
        0.1619260013103485
      ],
      "min": [
        -0.9037070274353027,
        1.1479790210723877,
        -0.11179900169372559
      ],
      "type": "VEC3"
    },
    {
      "bufferView": 2,
      "byteOffset": 169056,
      "componentType": 5126,
      "count": 3458,
      "max": [
        0.9942622780799866,
        0.9999411702156067,
        0.9998583793640137
      ],
      "min": [
        -0.9970709085464478,
        -0.9990914463996887,
        -0.9988363981246948
      ],
      "type": "VEC3"
    },
    {
      "bufferView": 1,
      "byteOffset": 42520,
      "componentType": 5126,
      "count": 3458,
      "max": [
        1.0,
        1.0
      ],
      "min": [
        0.0,
        0.0
      ],
      "type": "VEC2"
    },
    {
      "bufferView": 0,
      "byteOffset": 29436,
      "componentType": 5125,
      "count": 4656,
      "type": "SCALAR"
    }
  ],
  "asset": {
    "extras": {
      "author": "DavidA3D (https://sketchfab.com/DavidA3D)",
      "license": "CC-BY-NC-4.0 (http://creativecommons.org/licenses/by-nc/4.0/)",
      "source": "https://sketchfab.com/3d-models/joker-jared-leto-db8c4bf474354e40ab5fca9f6c8121e1",
      "title": "Joker (Jared Leto)"
    },
    "generator": "Sketchfab-12.67.0",
    "version": "2.0"
  },
  "bufferViews": [
    {
      "buffer": 0,
      "byteLength": 48060,
      "name": "floatBufferViews",
      "target": 34963
    },
    {
      "buffer": 0,
      "byteLength": 70184,
      "byteOffset": 48060,
      "byteStride": 8,
      "name": "floatBufferViews",
      "target": 34962
    },
    {
      "buffer": 0,
      "byteLength": 210552,
      "byteOffset": 118244,
      "byteStride": 12,
      "name": "floatBufferViews",
      "target": 34962
    }
  ],
  "buffers": [
    {
      "byteLength": 328796,
      "uri": "scene.bin"
    }
  ],
  "materials": [
    {
      "doubleSided": true,
      "name": "JokBlue",
      "pbrMetallicRoughness": {
        "baseColorFactor": [
          0.313726,
          0.227451,
          0.8,
          1.0
        ],
        "metallicFactor": 0.9163490854,
        "roughnessFactor": 0.5078125
      }
    },
    {
      "doubleSided": true,
      "name": "EyeWhites",
      "pbrMetallicRoughness": {
        "baseColorFactor": [
          0.8,
          0.8,
          0.8,
          1.0
        ],
        "metallicFactor": 0.0
      }
    },
    {
      "doubleSided": true,
      "name": "JokCoat",
      "pbrMetallicRoughness": {
        "baseColorFactor": [
          0.301961,
          0.184314,
          0.396078,
          1.0
        ],
        "metallicFactor": 0.5383003049,
        "roughnessFactor": 0.513910061
      }
    },
    {
      "doubleSided": true,
      "name": "JokYellow",
      "pbrMetallicRoughness": {
        "baseColorFactor": [
          0.8,
          0.792157,
          0.478431,
          1.0
        ],
        "metallicFactor": 0.6053734756,
        "roughnessFactor": 0.4285442073
      }
    },
    {
      "doubleSided": true,
      "name": "FlaBlack",
      "pbrMetallicRoughness": {
        "baseColorFactor": [
          0.105882,
          0.101961,
          0.145098,
          1.0
        ],
        "metallicFactor": 0.0
      }
    },
    {
      "doubleSided": true,
      "name": "Gold",
      "pbrMetallicRoughness": {
        "baseColorFactor": [
          0.8,
          0.698039,
          0.282353,
          1.0
        ],
        "roughnessFactor": 0.3797637195
      }
    },
    {
      "doubleSided": true,
      "name": "BatStraps",
      "pbrMetallicRoughness": {
        "baseColorFactor": [
          0.047059,
          0.047059,
          0.047059,
          1.0
        ],
        "roughnessFactor": 0.5078125
      }
    },
    {
      "doubleSided": true,
      "name": "Silver",
      "pbrMetallicRoughness": {
        "baseColorFactor": [
          0.576471,
          0.576471,
          0.576471,
          1.0
        ],
        "roughnessFactor": 0.4712271341
      }
    },
    {
      "doubleSided": true,
      "name": "WhiteHorse",
      "pbrMetallicRoughness": {
        "baseColorFactor": [
          0.8,
          0.8,
          0.8,
          1.0
        ],
        "metallicFactor": 0.0
      }
    },
    {
      "doubleSided": true,
      "name": "JokHair",
      "pbrMetallicRoughness": {
        "baseColorFactor": [
          0.039216,
          0.47451,
          0.235294,
          1.0
        ],
        "metallicFactor": 0.0
      }
    },
    {
      "doubleSided": true,
      "name": "material",
      "pbrMetallicRoughness": {
        "baseColorFactor": [
          0.160784,
          0.321569,
          0.47451,
          1.0
        ],
        "roughnessFactor": 0.5383003049
      }
    },
    {
      "doubleSided": true,
      "name": "FlaDarkRed",
      "pbrMetallicRoughness": {
        "baseColorFactor": [
          0.431373,
          0.121569,
          0.133333,
          1.0
        ],
        "metallicFactor": 0.0
      }
    },
    {
      "doubleSided": true,
      "name": "Skin",
      "pbrMetallicRoughness": {
        "baseColorFactor": [
          0.768627,
          0.74902,
          0.709804,
          1.0
        ],
        "metallicFactor": 0.0
      }
    }
  ],
  "meshes": [
    {
      "name": "Joker_JokBlue_0",
      "primitives": [
        {
          "attributes": {
            "NORMAL": 1,
            "POSITION": 0,
            "TEXCOORD_0": 2
          },
          "indices": 3,
          "material": 0,
          "mode": 4
        }
      ]
    },
    {
      "name": "Joker_EyeWhites_0",
      "primitives": [
        {
          "attributes": {
            "NORMAL": 5,
            "POSITION": 4,
            "TEXCOORD_0": 6
          },
          "indices": 7,
          "material": 1,
          "mode": 4
        }
      ]
    },
    {
      "name": "Joker_JokCoat_0",
      "primitives": [
        {
          "attributes": {
            "NORMAL": 9,
            "POSITION": 8,
            "TEXCOORD_0": 10
          },
          "indices": 11,
          "material": 2,
          "mode": 4
        }
      ]
    },
    {
      "name": "Joker_JokYellow_0",
      "primitives": [
        {
          "attributes": {
            "NORMAL": 13,
            "POSITION": 12,
            "TEXCOORD_0": 14
          },
          "indices": 15,
          "material": 3,
          "mode": 4
        }
      ]
    },
    {
      "name": "Joker_FlaBlack_0",
      "primitives": [
        {
          "attributes": {
            "NORMAL": 17,
            "POSITION": 16,
            "TEXCOORD_0": 18
          },
          "indices": 19,
          "material": 4,
          "mode": 4
        }
      ]
    },
    {
      "name": "Joker_Gold_0",
      "primitives": [
        {
          "attributes": {
            "NORMAL": 21,
            "POSITION": 20,
            "TEXCOORD_0": 22
          },
          "indices": 23,
          "material": 5,
          "mode": 4
        }
      ]
    },
    {
      "name": "Joker_BatStraps_0",
      "primitives": [
        {
          "attributes": {
            "NORMAL": 25,
            "POSITION": 24,
            "TEXCOORD_0": 26
          },
          "indices": 27,
          "material": 6,
          "mode": 4
        }
      ]
    },
    {
      "name": "Joker_Silver_0",
      "primitives": [
        {
          "attributes": {
            "NORMAL": 29,
            "POSITION": 28,
            "TEXCOORD_0": 30
          },
          "indices": 31,
          "material": 7,
          "mode": 4
        }
      ]
    },
    {
      "name": "Joker_WhiteHorse_0",
      "primitives": [
        {
          "attributes": {
            "NORMAL": 33,
            "POSITION": 32,
            "TEXCOORD_0": 34
          },
          "indices": 35,
          "material": 8,
          "mode": 4
        }
      ]
    },
    {
      "name": "Joker_JokHair_0",
      "primitives": [
        {
          "attributes": {
            "NORMAL": 37,
            "POSITION": 36,
            "TEXCOORD_0": 38
          },
          "indices": 39,
          "material": 9,
          "mode": 4
        }
      ]
    },
    {
      "name": "Joker_Eye_0",
      "primitives": [
        {
          "attributes": {
            "NORMAL": 41,
            "POSITION": 40,
            "TEXCOORD_0": 42
          },
          "indices": 43,
          "material": 10,
          "mode": 4
        }
      ]
    },
    {
      "name": "Joker_FlaDarkRed_0",
      "primitives": [
        {
          "attributes": {
            "NORMAL": 45,
            "POSITION": 44,
            "TEXCOORD_0": 46
          },
          "indices": 47,
          "material": 11,
          "mode": 4
        }
      ]
    },
    {
      "name": "Joker_Skin_0",
      "primitives": [
        {
          "attributes": {
            "NORMAL": 49,
            "POSITION": 48,
            "TEXCOORD_0": 50
          },
          "indices": 51,
          "material": 12,
          "mode": 4
        }
      ]
    }
  ],
  "nodes": [
    {
      "children": [
        1
      ],
      "matrix": [
        0.01537629496306181,
        0.0,
        0.0,
        0.0,
        0.0,
        3.4142233402838084e-18,
        -0.01537629496306181,
        0.0,
        0.0,
        0.01537629496306181,
        3.4142233402838084e-18,
        0.0,
        0.0,
        0.0,
        0.0,
        1.0
      ],
      "name": "Sketchfab_model"
    },
    {
      "children": [
        2
      ],
      "matrix": [
        1.0,
        0.0,
        0.0,
        0.0,
        0.0,
        0.0,
        1.0,
        0.0,
        0.0,
        -1.0,
        0.0,
        0.0,
        0.0,
        0.0,
        0.0,
        1.0
      ],
      "name": "8dbef590565b489fbc38f53c538ea9e3.fbx"
    },
    {
      "children": [
        3
      ],
      "name": "RootNode"
    },
    {
      "children": [
        4,
        5,
        6,
        7,
        8,
        9,
        10,
        11,
        12,
        13,
        14,
        15,
        16
      ],
      "matrix": [
        100.0,
        0.0,
        0.0,
        0.0,
        0.0,
        99.99999999999866,
        1.6292067073209114e-05,
        0.0,
        0.0,
        -1.6292067073209114e-05,
        99.99999999999866,
        0.0,
        0.0,
        0.0,
        0.0,
        1.0
      ],
      "name": "Joker"
    },
    {
      "mesh": 0,
      "name": "Joker_JokBlue_0"
    },
    {
      "mesh": 1,
      "name": "Joker_EyeWhites_0"
    },
    {
      "mesh": 2,
      "name": "Joker_JokCoat_0"
    },
    {
      "mesh": 3,
      "name": "Joker_JokYellow_0"
    },
    {
      "mesh": 4,
      "name": "Joker_FlaBlack_0"
    },
    {
      "mesh": 5,
      "name": "Joker_Gold_0"
    },
    {
      "mesh": 6,
      "name": "Joker_BatStraps_0"
    },
    {
      "mesh": 7,
      "name": "Joker_Silver_0"
    },
    {
      "mesh": 8,
      "name": "Joker_WhiteHorse_0"
    },
    {
      "mesh": 9,
      "name": "Joker_JokHair_0"
    },
    {
      "mesh": 10,
      "name": "Joker_Eye_0"
    },
    {
      "mesh": 11,
      "name": "Joker_FlaDarkRed_0"
    },
    {
      "mesh": 12,
      "name": "Joker_Skin_0"
    }
  ],
  "scene": 0,
  "scenes": [
    {
      "name": "Sketchfab_Scene",
      "nodes": [
        0
      ]
    }
  ]
}
